<svg width="16" height="16" viewBox="0 0 16 16" fill="none" xmlns="http://www.w3.org/2000/svg">
<path d="M9.66634 2.66699H6.33301L4.66634 4.66699H2.66634C2.31272 4.66699 1.97358 4.80747 1.72353 5.05752C1.47348 5.30756 1.33301 5.6467 1.33301 6.00033V12.0003C1.33301 12.3539 1.47348 12.6931 1.72353 12.9431C1.97358 13.1932 2.31272 13.3337 2.66634 13.3337H13.333C13.6866 13.3337 14.0258 13.1932 14.2758 12.9431C14.5259 12.6931 14.6663 12.3539 14.6663 12.0003V6.00033C14.6663 5.6467 14.5259 5.30756 14.2758 5.05752C14.0258 4.80747 13.6866 4.66699 13.333 4.66699H11.333L9.66634 2.66699Z" stroke="#100F0F" stroke-width="1.6" stroke-linecap="round" stroke-linejoin="round"/>
<path d="M8 10.667C9.10457 10.667 10 9.77156 10 8.66699C10 7.56242 9.10457 6.66699 8 6.66699C6.89543 6.66699 6 7.56242 6 8.66699C6 9.77156 6.89543 10.667 8 10.667Z" stroke="#100F0F" stroke-width="1.6" stroke-linecap="round" stroke-linejoin="round"/>
</svg>
