<svg width="16" height="16" viewBox="0 0 16 16" fill="none" xmlns="http://www.w3.org/2000/svg">
<g clip-path="url(#clip0_169_2066)">
<path d="M1.33301 1.33301L14.6663 14.6663" stroke="#100F0F" stroke-width="1.6" stroke-linecap="round" stroke-linejoin="round"/>
<path d="M4.66634 4.66699H2.66634C2.31272 4.66699 1.97358 4.80747 1.72353 5.05752C1.47348 5.30756 1.33301 5.6467 1.33301 6.00033V12.0003C1.33301 12.3539 1.47348 12.6931 1.72353 12.9431C1.97358 13.1932 2.31272 13.3337 2.66634 13.3337H13.333" stroke="#100F0F" stroke-width="1.6" stroke-linecap="round" stroke-linejoin="round"/>
<path d="M6.33301 2.66699H9.66634L11.333 4.66699H13.333C13.6866 4.66699 14.0258 4.80747 14.2758 5.05752C14.5259 5.30757 14.6663 5.6467 14.6663 6.00033V11.0003" stroke="#100F0F" stroke-width="1.6" stroke-linecap="round" stroke-linejoin="round"/>
<path d="M9.41393 10.0808C9.23023 10.275 9.00946 10.4304 8.76468 10.5378C8.51989 10.6452 8.25605 10.7025 7.98875 10.7062C7.72145 10.7099 7.45612 10.66 7.20844 10.5594C6.96075 10.4589 6.73575 10.3097 6.54672 10.1206C6.3577 9.9316 6.20848 9.70659 6.1079 9.45891C6.00732 9.21123 5.95741 8.9459 5.96113 8.6786C5.96485 8.4113 6.02211 8.14746 6.12954 7.90267C6.23697 7.65788 6.39239 7.43712 6.5866 7.25342" stroke="#100F0F" stroke-width="1.6" stroke-linecap="round" stroke-linejoin="round"/>
</g>
<defs>
<clipPath id="clip0_169_2066">
<rect width="16" height="16" fill="white"/>
</clipPath>
</defs>
</svg>
