<svg width="16" height="16" viewBox="0 0 16 16" fill="none" xmlns="http://www.w3.org/2000/svg">
<g clip-path="url(#clip0_1152_3771)">
<path d="M8 16C3.592 16 0 12.408 0 8C0 3.592 3.592 0 8 0C12.408 0 16 3.232 16 7.2C16 9.848 13.848 12 11.2 12H9.784C9.56 12 9.384 12.176 9.384 12.4C9.384 12.496 9.424 12.584 9.488 12.664C9.816 13.04 10 13.512 10 14C10 14.5304 9.78929 15.0391 9.41421 15.4142C9.03914 15.7893 8.53043 16 8 16ZM8 1.6C4.472 1.6 1.6 4.472 1.6 8C1.6 11.528 4.472 14.4 8 14.4C8.224 14.4 8.4 14.224 8.4 14C8.39751 13.8962 8.35776 13.7969 8.288 13.72C7.96 13.352 7.784 12.88 7.784 12.4C7.784 11.8696 7.99471 11.3609 8.36979 10.9858C8.74486 10.6107 9.25357 10.4 9.784 10.4H11.2C12.968 10.4 14.4 8.968 14.4 7.2C14.4 4.112 11.528 1.6 8 1.6Z" fill="black"/>
<path d="M3.60039 8.7999C4.26313 8.7999 4.80039 8.26264 4.80039 7.5999C4.80039 6.93716 4.26313 6.3999 3.60039 6.3999C2.93765 6.3999 2.40039 6.93716 2.40039 7.5999C2.40039 8.26264 2.93765 8.7999 3.60039 8.7999Z" fill="black"/>
<path d="M6.00029 5.6002C6.66303 5.6002 7.20029 5.06294 7.20029 4.4002C7.20029 3.73745 6.66303 3.2002 6.00029 3.2002C5.33755 3.2002 4.80029 3.73745 4.80029 4.4002C4.80029 5.06294 5.33755 5.6002 6.00029 5.6002Z" fill="black"/>
<path d="M9.9998 5.6002C10.6625 5.6002 11.1998 5.06294 11.1998 4.4002C11.1998 3.73745 10.6625 3.2002 9.9998 3.2002C9.33706 3.2002 8.7998 3.73745 8.7998 4.4002C8.7998 5.06294 9.33706 5.6002 9.9998 5.6002Z" fill="black"/>
<path d="M12.3997 8.7999C13.0624 8.7999 13.5997 8.26264 13.5997 7.5999C13.5997 6.93716 13.0624 6.3999 12.3997 6.3999C11.737 6.3999 11.1997 6.93716 11.1997 7.5999C11.1997 8.26264 11.737 8.7999 12.3997 8.7999Z" fill="black"/>
</g>
<defs>
<clipPath id="clip0_1152_3771">
<rect width="16" height="16" fill="white"/>
</clipPath>
</defs>
</svg>
