<svg width="20" height="20" viewBox="0 0 20 20" fill="none" xmlns="http://www.w3.org/2000/svg">
<path d="M3.81641 11.3371V5.19033C3.81641 3.75439 4.98047 2.59033 6.41641 2.59033H13.5839C15.0198 2.59033 16.1839 3.75437 16.1839 5.1903L16.184 14.8096C16.1841 16.2455 15.02 17.4096 13.584 17.4096H10.0106C10.0106 17.4096 9.14125 15.1481 7.51074 13.5176C5.88023 11.8871 3.81641 11.3371 3.81641 11.3371Z" stroke="#100F0F" stroke-width="1.8"/>
<path d="M7.25247 7.81826C7.39065 7.69122 7.56713 7.61829 7.81065 7.61826C8.04505 7.61823 8.17483 7.68237 8.25831 7.74609C8.28543 7.76679 8.31188 7.79083 8.33752 7.81826H7.25247Z" fill="#100F0F" stroke="#100F0F" stroke-width="1.8"/>
<path d="M11.8214 7.79807C11.9561 7.6841 12.1277 7.61829 12.3614 7.61826C12.5981 7.61823 12.7291 7.68249 12.8126 7.74559C12.8332 7.76118 12.8534 7.77866 12.8732 7.79807H11.8214Z" fill="#100F0F" stroke="#100F0F" stroke-width="1.8"/>
</svg>
