<svg width="16" height="16" viewBox="0 0 16 16" fill="none" xmlns="http://www.w3.org/2000/svg">
<path fill-rule="evenodd" clip-rule="evenodd" d="M10 4.5C10.8284 4.5 11.5 3.82843 11.5 3C11.5 2.17157 10.8284 1.5 10 1.5C9.17157 1.5 8.5 2.17157 8.5 3C8.5 3.82843 9.17157 4.5 10 4.5ZM3.89474 6.33577C4.44203 6.77219 4.442 6.77224 4.44197 6.77227L4.44208 6.77214L4.44291 6.77109L4.44692 6.7661L4.46396 6.74496C4.47922 6.72609 4.50211 6.69794 4.53169 6.66196C4.5909 6.58994 4.67673 6.48678 4.78184 6.36395C4.99301 6.11719 5.27781 5.79595 5.57854 5.48953C5.88525 5.17701 6.18355 4.90576 6.42377 4.74007C6.47096 4.70752 6.5106 4.6828 6.54292 4.66426L7.4185 5.21331C7.27024 5.40377 7.10053 5.62354 6.92854 5.84985C6.68132 6.17517 6.42556 6.51906 6.22136 6.81059C6.11962 6.95584 6.02627 7.09435 5.95182 7.21446C5.88994 7.31427 5.80188 7.46214 5.75566 7.60365C5.64461 7.94358 5.73773 8.25641 5.83276 8.46159C5.93101 8.67367 6.07668 8.87062 6.22235 9.04112C6.51506 9.38373 6.91607 9.74256 7.28616 10.0624C7.39589 10.1572 7.50277 10.2485 7.60576 10.3365L7.60581 10.3365C7.86854 10.5609 8.10599 10.7638 8.30113 10.9484C8.39155 11.0339 8.46138 11.1051 8.5129 11.1625C8.46653 11.264 8.39862 11.3936 8.31027 11.5479C8.11589 11.8875 7.85088 12.2977 7.57813 12.7008C7.3069 13.1017 7.03482 13.4856 6.83001 13.77C6.72777 13.9119 6.64265 14.0286 6.58325 14.1095L6.51458 14.2028L6.49678 14.2268L6.49237 14.2328L6.49133 14.2342L6.4911 14.2345L6.49107 14.2345L7.05263 14.6524C7.61418 15.0704 7.61421 15.0703 7.61424 15.0703L7.61436 15.0701L7.61474 15.0696L7.6161 15.0678L7.62117 15.061L7.64033 15.0351L7.71198 14.9378C7.77347 14.854 7.86105 14.7339 7.96604 14.5882C8.17571 14.297 8.45626 13.9013 8.73766 13.4853C9.01754 13.0717 9.30516 12.628 9.52525 12.2435C9.63477 12.0522 9.73476 11.8632 9.80942 11.6926C9.87061 11.5529 9.96316 11.3225 9.96316 11.0882C9.96316 10.9053 9.90571 10.7545 9.85764 10.6558C9.8072 10.5523 9.74421 10.4601 9.68493 10.3831C9.56705 10.23 9.41557 10.0755 9.26332 9.93144C9.04033 9.72046 8.7608 9.4817 8.48751 9.24826L8.48748 9.24823L8.48735 9.24812C8.39034 9.16526 8.29412 9.08307 8.2015 9.00304C7.82831 8.68056 7.50241 8.38412 7.28679 8.13173C7.22127 8.05504 7.17568 7.99349 7.14514 7.9466C7.19975 7.85889 7.27523 7.74629 7.36805 7.61377C7.55687 7.34421 7.79996 7.01701 8.0432 6.69693C8.24604 6.43002 8.4463 6.17156 8.61079 5.96102L9.1303 6.28677C9.14189 6.30054 9.15556 6.31732 9.17147 6.33747C9.21696 6.39509 9.27133 6.46826 9.33539 6.55658C9.37536 6.6117 9.41985 6.67383 9.46711 6.73982L9.46717 6.73991L9.46721 6.73996C9.5631 6.87388 9.67037 7.02366 9.77429 7.16293C9.93047 7.37222 10.1094 7.5995 10.2874 7.77952C10.376 7.8691 10.4829 7.96604 10.603 8.04484C10.7104 8.11532 10.9066 8.22394 11.1578 8.22396L12.6974 8.22398L13.6003 8.22397L13.8908 8.22397H13.9716L13.9928 8.22396H13.9982H13.9995H13.9999H14L14 7.52396L14 6.82397H13.9999H13.9995H13.9982H13.9927H13.9715L13.8908 6.82397L13.6003 6.82397L12.6974 6.82398L11.3123 6.82397C11.3032 6.81537 11.2934 6.80574 11.2828 6.79502C11.1763 6.6873 11.0449 6.52475 10.8963 6.32565C10.7998 6.19627 10.7086 6.06893 10.6181 5.94247C10.5684 5.873 10.5189 5.8038 10.4687 5.73467C10.3493 5.57001 10.1957 5.36101 10.0586 5.23198L10.0087 5.18512L9.9508 5.14879L9.03111 4.57211L8.86512 4.46801L8.83163 4.44701L8.82426 4.44239L8.82255 4.44131L8.82214 4.44106L8.82204 4.44099L8.82202 4.44098L8.82201 4.44098L8.45002 5.03395L8.82201 4.44098L8.82195 4.44094L8.45002 5.03395L8.82194 4.44093L8.8219 4.44091L8.82175 4.44081L8.82116 4.44044L8.81883 4.43898L8.80965 4.43322L8.77424 4.41101L8.64307 4.32875L8.20218 4.05225L7.10867 3.36655C6.779 3.15986 6.43212 3.21483 6.22396 3.28011C6.00671 3.34822 5.80206 3.46817 5.62887 3.58763C5.27697 3.83034 4.90423 4.17788 4.57935 4.5089C4.24851 4.846 3.9412 5.19305 3.71816 5.45369C3.60617 5.58455 3.51437 5.69487 3.45022 5.7729C3.41812 5.81194 3.3929 5.84297 3.37547 5.86451L3.35527 5.88957L3.34977 5.89643L3.3482 5.89839L3.34772 5.899L3.34755 5.8992C3.34749 5.89928 3.34744 5.89935 3.89474 6.33577ZM6.64785 4.61455L6.645 4.61531C6.64694 4.61474 6.64787 4.61452 6.64785 4.61455ZM7.09631 7.85654C7.0964 7.85657 7.09701 7.85813 7.09788 7.86111C7.09666 7.85799 7.09623 7.8565 7.09631 7.85654ZM6.42105 10.1972C5.94146 9.68726 5.94154 9.68719 5.94162 9.68712L5.94146 9.68727L5.93629 9.69204L5.91147 9.71457C5.88876 9.73496 5.85444 9.76525 5.81089 9.80211C5.72303 9.87649 5.6015 9.97434 5.46493 10.0707C5.32623 10.1685 5.18517 10.2554 5.05738 10.3155C4.99434 10.3452 4.94211 10.3647 4.90121 10.3762C4.86238 10.3872 4.84375 10.3881 4.8422 10.3882C4.84212 10.3882 4.84209 10.3882 4.84209 10.3882L3.1842 10.3882L2.35525 10.3882L2.0962 10.3882L2.02496 10.3882H2.00634H2.00158H2.00038H2.00008H2.00001L2 11.0882L2.00004 11.7882H2.00012H2.00042H2.00162H2.00638L2.025 11.7882L2.09624 11.7882L2.35528 11.7882L3.18422 11.7882L4.84207 11.7882C5.14922 11.7882 5.43599 11.6845 5.65315 11.5824C5.88062 11.4755 6.09482 11.3396 6.27192 11.2147C6.45113 11.0883 6.60592 10.9634 6.71542 10.8707C6.77056 10.824 6.81518 10.7847 6.84675 10.7563C6.86256 10.7421 6.87516 10.7306 6.88423 10.7223L6.89518 10.7122L6.89861 10.709L6.8998 10.7078L6.90026 10.7074L6.90046 10.7072C6.90055 10.7071 6.90064 10.7071 6.42105 10.1972Z" fill="#100F0F"/>
</svg>
