<svg width="16" height="16" viewBox="0 0 16 16" fill="none" xmlns="http://www.w3.org/2000/svg">
<path d="M10.1907 7.24688L8.70635 9.60626C8.64562 9.69042 8.57177 9.76428 8.4876 9.82501C8.28442 9.96675 8.03353 10.0226 7.78939 9.98056C7.54526 9.93848 7.32757 9.8018 7.18357 9.60021C7.03957 9.39862 6.98089 9.14837 7.02026 8.90377C7.05963 8.65918 7.19387 8.43999 7.39385 8.29376L9.75323 6.80938C9.80686 6.772 9.87066 6.75195 9.93604 6.75195C10.0014 6.75195 10.0652 6.772 10.1189 6.80938C10.1862 6.85801 10.2316 6.93133 10.245 7.0133C10.2585 7.09528 10.239 7.17926 10.1907 7.24688Z" fill="#100F0F"/>
<path d="M8.00001 2C4.13438 2 1.00001 5.13125 1.00001 8.99687C0.997636 10.7071 1.62377 12.3587 2.75938 13.6375C2.79376 13.675 2.82501 13.7125 2.85938 13.7469C2.93333 13.8269 3.0231 13.8908 3.123 13.9343C3.22291 13.9779 3.33077 14.0002 3.43976 13.9999C3.54874 13.9996 3.65648 13.9767 3.75615 13.9326C3.85582 13.8885 3.94524 13.8242 4.01876 13.7437C4.52548 13.1931 5.14092 12.7535 5.8262 12.4528C6.51147 12.1522 7.25167 11.9969 8.00001 11.9969C8.74834 11.9969 9.48854 12.1522 10.1738 12.4528C10.8591 12.7535 11.4745 13.1931 11.9813 13.7437C12.0548 13.8242 12.1442 13.8885 12.2439 13.9326C12.3435 13.9767 12.4513 13.9996 12.5603 13.9999C12.6692 14.0002 12.7771 13.9779 12.877 13.9343C12.9769 13.8908 13.0667 13.8269 13.1406 13.7469L13.2406 13.6375C14.3762 12.3587 15.0024 10.7071 15 8.99687C15 5.13125 11.8656 2 8.00001 2Z" stroke="#100F0F" stroke-width="1.6" stroke-linecap="round" stroke-linejoin="round"/>
<path d="M8 4V5M13 9H12M4 9H3M5.17156 6.17156L4.46438 5.46438M10.8284 6.17156L11.5356 5.46438" stroke="#100F0F" stroke-width="1.2" stroke-miterlimit="10" stroke-linecap="round"/>
</svg>
